<?xml version="1.0" standalone="no"?>
<!DOCTYPE svg PUBLIC "-//W3C//DTD SVG 20010904//EN"
 "http://www.w3.org/TR/2001/REC-SVG-20010904/DTD/svg10.dtd">
<svg version="1.0" xmlns="http://www.w3.org/2000/svg"
 width="1056.000000pt" height="1056.000000pt" viewBox="0 0 1056.000000 1056.000000"
 preserveAspectRatio="xMidYMid meet">
<metadata>
Created by potrace 1.11, written by Peter Selinger 2001-2013
</metadata>
<g transform="translate(0.000000,1056.000000) scale(0.100000,-0.100000)"
fill="#000000" stroke="none">
<path d="M5100 9343 c-172 -10 -351 -30 -515 -58 -87 -15 -274 -60 -380 -91
-1169 -342 -2088 -1220 -2465 -2354 -120 -360 -177 -724 -177 -1115 0 -261 8
-366 49 -600 81 -478 261 -937 526 -1345 54 -83 198 -280 242 -330 12 -14 45
-52 73 -85 135 -156 337 -346 511 -480 46 -36 89 -65 95 -65 6 0 11 -4 11 -8
0 -14 230 -163 240 -157 6 4 13 -1 16 -10 7 -18 58 -47 68 -38 3 4 6 1 6 -5 0
-15 115 -73 125 -64 5 4 5 2 2 -4 -8 -14 20 -27 35 -17 6 3 8 1 4 -5 -5 -9 32
-29 43 -23 2 2 7 -1 10 -6 8 -11 93 -49 103 -45 5 1 8 -3 8 -9 0 -5 5 -7 10
-4 6 3 10 1 10 -5 0 -7 7 -10 15 -6 8 3 15 2 15 -3 0 -12 81 -42 93 -34 6 4 7
1 2 -7 -6 -10 -4 -12 8 -7 9 3 17 2 19 -3 2 -4 12 -10 23 -12 11 -1 22 -5 25
-8 12 -13 133 -49 143 -43 6 4 7 1 2 -7 -6 -10 -3 -12 13 -8 12 4 22 2 22 -4
0 -6 9 -8 20 -5 13 3 18 1 13 -6 -4 -6 2 -8 15 -5 12 4 20 2 16 -3 -4 -7 24
-12 52 -8 4 0 10 -4 13 -10 4 -6 21 -11 39 -13 18 -1 32 -5 32 -8 0 -5 33 -11
77 -14 11 0 19 -5 16 -10 -3 -5 6 -7 20 -4 15 3 28 2 29 -3 3 -8 72 -21 125
-22 17 -1 29 -5 26 -10 -3 -4 13 -6 36 -4 25 2 38 0 34 -6 -4 -6 5 -8 25 -4
20 4 32 2 32 -4 0 -7 19 -10 49 -7 28 1 47 -1 43 -6 -3 -5 5 -6 18 -3 13 3 32
1 43 -5 14 -7 17 -7 13 1 -4 6 -2 11 3 11 6 0 11 -5 11 -10 0 -7 27 -10 74 -7
41 1 72 -1 70 -5 -8 -13 11 -9 25 5 9 7 11 7 8 1 -5 -9 35 -12 151 -12 86 0
162 3 167 6 17 10 35 11 29 1 -3 -5 0 -9 5 -9 6 0 11 4 11 9 0 10 19 9 37 -2
6 -4 14 -4 17 1 3 5 19 7 37 4 24 -3 30 -1 24 8 -6 9 -3 9 15 0 17 -9 21 -9
15 0 -5 8 4 10 34 5 23 -3 41 -2 41 3 0 5 24 7 53 5 37 -3 48 -1 37 6 -11 8
-3 9 27 5 23 -2 44 0 48 5 3 6 12 8 20 4 8 -3 23 -2 33 2 9 5 25 7 36 6 10 -2
16 1 13 6 -3 5 10 8 29 7 20 -2 32 1 29 6 -4 6 7 7 27 4 25 -4 29 -3 18 5 -11
8 -7 9 18 5 21 -4 32 -3 32 5 0 7 10 9 28 5 22 -4 24 -3 12 6 -12 9 -10 11 12
6 15 -3 29 -2 33 4 3 5 13 6 22 3 10 -4 14 -2 10 4 -5 7 0 9 13 6 11 -3 20 -1
20 5 0 6 9 9 20 7 11 -2 20 0 20 5 0 4 10 6 22 2 15 -4 19 -2 13 7 -6 10 -2
11 15 6 17 -5 21 -4 15 5 -5 9 -4 11 4 6 16 -10 102 15 94 27 -3 5 4 6 17 2
14 -4 20 -3 16 3 -6 10 23 26 32 17 3 -3 -1 -5 -8 -5 -7 0 -11 -2 -8 -5 8 -8
39 6 33 15 -3 5 5 6 17 2 16 -4 19 -2 13 8 -6 10 -4 12 8 7 10 -3 17 -2 17 3
0 5 7 6 17 3 11 -4 14 -3 9 5 -4 8 -2 10 7 6 8 -3 18 0 22 5 3 6 11 9 16 6 5
-4 9 -1 9 5 0 6 4 9 9 6 14 -9 42 5 35 16 -4 6 2 7 16 3 14 -4 20 -3 16 3 -3
5 1 13 10 16 8 3 13 2 10 -3 -4 -5 3 -7 14 -4 11 3 23 9 26 14 3 5 -3 6 -13 3
-17 -5 -17 -5 0 6 9 6 22 8 27 5 6 -3 10 -1 10 5 0 6 4 9 9 6 14 -9 42 5 34
17 -4 6 -1 7 6 3 7 -5 19 0 27 10 9 11 13 13 9 7 -10 -20 2 -15 26 10 12 12
19 16 15 9 -6 -10 -2 -10 18 -1 14 7 23 15 21 19 -3 5 2 11 11 14 8 3 12 2 9
-4 -4 -6 5 -5 19 1 14 7 23 16 20 20 -3 5 6 9 19 9 14 0 32 10 41 22 9 13 14
16 11 8 -4 -8 3 -4 15 10 12 14 19 19 15 12 -5 -9 8 -6 34 7 23 12 41 24 41
27 0 2 -9 0 -20 -6 -35 -19 -21 -3 17 20 29 17 34 18 22 4 -13 -16 -12 -16 14
0 25 17 40 35 15 20 -7 -4 -8 -3 -4 5 4 6 12 8 18 5 6 -4 20 4 30 17 11 13 17
18 13 11 -6 -11 -3 -12 11 -3 22 12 75 56 57 46 -29 -14 -10 4 30 30 23 16 38
22 32 14 -5 -8 1 -3 15 11 14 14 21 19 16 10 -5 -8 6 1 25 21 19 19 30 28 24
19 -5 -9 4 0 22 19 18 20 39 36 48 36 9 0 35 21 58 46 23 25 33 34 23 20 -13
-17 -5 -13 20 11 21 20 65 60 96 88 32 29 56 57 55 64 -1 6 5 10 14 8 9 -1 19
5 23 13 4 11 2 14 -6 9 -7 -4 -8 -3 -4 4 4 7 13 12 19 12 7 0 39 28 72 62 55
58 56 59 10 18 -27 -25 -1 4 58 63 73 72 107 113 103 123 -3 8 -2 13 3 10 4
-3 17 4 27 17 19 21 19 21 -1 8 -11 -8 -4 1 16 20 40 38 122 150 98 134 -8 -5
-3 1 11 15 14 14 19 21 11 15 -10 -7 -9 -2 3 18 17 24 36 41 21 17 -3 -5 -4
-10 -2 -10 2 0 21 26 42 58 21 31 30 50 20 42 -17 -14 -17 -14 -5 7 8 12 17
20 20 18 4 -2 15 10 25 27 13 22 14 29 4 24 -8 -4 -3 2 11 14 14 12 19 19 13
15 -9 -4 -11 -1 -7 9 3 9 9 14 13 11 4 -2 25 28 46 67 21 39 32 68 24 64 -8
-4 -5 0 5 8 11 9 16 16 12 16 -4 0 -1 7 8 15 8 9 12 23 9 32 -4 10 -2 14 4 10
5 -3 17 10 27 29 9 20 12 33 6 29 -5 -3 -7 0 -4 9 3 8 12 17 21 20 8 4 13 13
9 21 -3 8 -1 15 4 15 5 0 6 7 3 17 -4 11 -3 14 5 9 12 -7 29 37 23 63 -1 7 2
10 7 7 13 -8 23 20 15 41 -4 10 -2 14 4 10 13 -8 38 57 29 72 -3 5 1 14 9 21
8 7 12 16 9 21 -3 5 0 9 6 9 7 0 9 8 5 21 -5 13 -3 19 3 15 10 -6 27 42 18 51
-3 3 2 12 10 21 10 9 13 24 9 39 -4 16 -2 22 5 18 5 -3 10 -2 10 4 0 5 3 17 7
27 5 13 3 15 -8 9 -10 -6 -9 -3 2 11 9 10 15 29 14 41 -1 12 2 20 7 17 5 -3 7
6 4 20 -3 15 -1 24 5 21 5 -4 9 -2 9 4 0 5 3 18 6 28 5 15 4 15 -5 3 -6 -8
-11 -10 -11 -5 0 6 7 21 16 33 9 13 14 32 11 43 -3 10 -1 17 4 13 5 -3 9 5 9
18 1 13 2 37 2 55 1 18 5 30 11 26 5 -3 6 7 2 26 -4 20 -3 31 5 31 7 0 10 15
7 40 -2 24 0 37 6 33 6 -4 8 6 4 26 -5 24 -4 30 6 25 7 -5 5 0 -3 11 -10 13
-11 16 -2 11 11 -6 12 -1 9 23 -3 17 -1 34 4 37 6 3 5 12 -3 22 -11 13 -11 14
0 8 11 -6 13 2 9 38 -2 29 0 46 7 46 6 0 4 5 -4 10 -12 8 -12 10 -1 10 11 0
11 3 0 17 -11 13 -11 15 -1 9 11 -6 13 6 10 63 -3 42 0 75 6 82 8 9 8 10 0 6
-7 -4 -10 8 -10 33 1 22 5 40 9 40 4 0 4 8 -1 18 -5 9 -7 56 -5 105 2 65 0 87
-9 87 -9 0 -8 3 2 10 12 8 13 11 1 19 -11 7 -11 9 0 14 8 3 9 6 3 6 -7 1 -9
17 -7 45 3 24 1 46 -5 50 -5 3 -7 24 -5 46 2 22 0 40 -4 40 -5 0 -7 16 -5 36
3 24 1 35 -6 30 -7 -4 -9 3 -6 20 3 15 2 34 -2 43 -4 9 -6 27 -5 40 2 14 -1
21 -8 17 -6 -4 -8 6 -4 30 4 21 2 35 -3 31 -5 -3 -10 16 -11 41 -1 26 -6 48
-12 50 -5 2 -8 9 -5 17 3 7 1 16 -4 19 -6 3 -8 15 -5 26 3 11 1 20 -5 20 -6 0
-8 9 -5 20 3 11 1 20 -3 20 -5 0 -10 14 -10 32 -1 18 -6 34 -12 36 -6 2 -9 9
-6 17 3 7 1 16 -5 19 -6 4 -8 13 -5 20 3 8 1 17 -5 20 -6 4 -8 13 -4 21 3 8 0
15 -6 15 -6 0 -10 3 -9 8 5 14 -45 152 -54 152 -5 0 -7 4 -4 9 7 11 -16 71
-27 71 -4 0 -6 4 -3 9 7 10 -43 124 -56 129 -4 2 -6 8 -2 13 3 5 0 9 -5 9 -6
0 -10 3 -9 8 4 13 -26 82 -36 82 -5 0 -6 3 -3 6 3 4 -4 25 -17 48 -13 22 -35
61 -48 86 -46 88 -122 210 -130 210 -5 0 -7 4 -4 9 3 5 -5 20 -19 35 -13 15
-24 27 -23 29 5 5 -64 97 -73 97 -6 0 -8 4 -5 9 3 5 -7 23 -24 40 -16 18 -29
34 -29 37 -1 9 -113 145 -170 207 -32 34 -68 74 -81 89 -13 15 -28 25 -33 21
-6 -3 -7 -2 -4 4 4 6 -28 41 -70 79 -41 38 -85 79 -97 91 -11 12 -55 49 -96
83 -41 34 -84 69 -95 78 -11 9 -67 49 -124 90 -484 345 -1040 568 -1631 656
-52 8 -120 17 -150 20 -30 3 -83 8 -116 11 -64 7 -375 12 -454 8z m3425 -5333
c-9 -16 -18 -30 -21 -30 -2 0 2 14 11 30 9 17 18 30 21 30 2 0 -2 -13 -11 -30z
m-235 -374 c0 -2 -8 -10 -17 -17 -16 -13 -17 -12 -4 4 13 16 21 21 21 13z
m-30 -40 c0 -2 -8 -10 -17 -17 -16 -13 -17 -12 -4 4 13 16 21 21 21 13z m-136
-171 c-20 -25 -39 -45 -42 -45 -5 0 8 17 52 68 35 40 28 23 -10 -23z m-299
-315 c-21 -22 -42 -40 -47 -40 -7 0 73 79 82 80 2 0 -14 -18 -35 -40z m-155
-133 c0 -2 -10 -12 -22 -23 l-23 -19 19 23 c18 21 26 27 26 19z m-280 -211 c0
-2 -8 -10 -17 -17 -16 -13 -17 -12 -4 4 13 16 21 21 21 13z"/>
<path d="M7599 2913 c-13 -16 -12 -17 4 -4 16 13 21 21 13 21 -2 0 -10 -8 -17
-17z"/>
</g>
</svg>
